<svg width="16" height="16" viewBox="0 0 16 16" fill="none" xmlns="http://www.w3.org/2000/svg">
<g clip-path="url(#clip0_4_87)">
<path d="M11.7419 10.3442C12.7102 9.02291 13.1439 7.38471 12.9562 5.75737C12.7685 4.13003 11.9733 2.63356 10.7297 1.56735C9.48601 0.501144 7.88564 -0.0561739 6.24873 0.00689928C4.61181 0.0699724 3.05908 0.748785 1.90116 1.90753C0.743242 3.06628 0.0655413 4.6195 0.00363945 6.25646C-0.0582624 7.89341 0.5002 9.49338 1.5673 10.7363C2.6344 11.9792 4.13144 12.7733 5.75891 12.9598C7.38638 13.1463 9.02427 12.7115 10.3449 11.7422H10.3439C10.3739 11.7822 10.4059 11.8202 10.4419 11.8572L14.2919 15.7072C14.4794 15.8949 14.7338 16.0003 14.999 16.0004C15.2643 16.0005 15.5187 15.8952 15.7064 15.7077C15.894 15.5202 15.9995 15.2658 15.9996 15.0006C15.9997 14.7353 15.8944 14.4809 15.7069 14.2932L11.8569 10.4432C11.8211 10.407 11.7827 10.3736 11.7419 10.3432V10.3442ZM11.9999 6.50022C11.9999 7.22249 11.8576 7.93769 11.5812 8.60498C11.3048 9.27227 10.8997 9.87859 10.389 10.3893C9.87826 10.9 9.27194 11.3052 8.60465 11.5816C7.93736 11.858 7.22216 12.0002 6.49989 12.0002C5.77762 12.0002 5.06242 11.858 4.39513 11.5816C3.72784 11.3052 3.12153 10.9 2.6108 10.3893C2.10008 9.87859 1.69495 9.27227 1.41855 8.60498C1.14215 7.93769 0.999891 7.22249 0.999891 6.50022C0.999891 5.04153 1.57935 3.64259 2.6108 2.61114C3.64225 1.57969 5.0412 1.00022 6.49989 1.00022C7.95858 1.00022 9.35753 1.57969 10.389 2.61114C11.4204 3.64259 11.9999 5.04153 11.9999 6.50022Z" fill="white"/>
</g>
<defs>
<clipPath id="clip0_4_87">
<rect width="16" height="16" fill="white"/>
</clipPath>
</defs>
</svg>
