<svg width="41" height="41" viewBox="0 0 41 41" fill="none" xmlns="http://www.w3.org/2000/svg">
<path d="M20.5 0C9.17816 0 0 9.17816 0 20.5C0 31.8218 9.17816 41 20.5 41C31.8218 41 41 31.8218 41 20.5C41 9.17816 31.8218 0 20.5 0ZM10.1674 8.66094L13.816 9.80706C14.299 9.9657 14.6207 10.4142 14.6768 10.8731L14.882 12.8825L31.4031 14.7268C32.1125 14.8642 32.611 15.5047 32.5117 16.1632L31.4857 21.9438C31.3551 22.5484 30.8543 22.9629 30.2971 22.9698H15.6202L15.3325 24.6089H29.2711C29.9999 24.6345 30.5338 25.1895 30.5423 25.8376C30.5121 26.5769 29.9162 27.0608 29.2711 27.0688H13.856C13.0785 27.0045 12.5077 26.3884 12.6273 25.6349L13.2829 22.0264L12.257 11.9391L9.42918 11.0383C9.10118 10.929 8.85497 10.7233 8.69098 10.4226C8.38067 9.77238 8.67051 9.05242 9.22401 8.741C9.53992 8.57679 9.84844 8.55632 10.1674 8.66094ZM15.7229 27.7771C16.7843 27.7771 17.6447 28.6375 17.6447 29.699C17.6447 30.7604 16.7843 31.6208 15.7229 31.6208C14.6615 31.6208 13.801 30.7604 13.801 29.699C13.801 28.6375 14.6614 27.7771 15.7229 27.7771ZM27.0038 27.7771C28.0652 27.7771 28.9257 28.6375 28.9257 29.699C28.9257 30.7604 28.0652 31.6208 27.0038 31.6208C25.9424 31.6208 25.082 30.7604 25.082 29.699C25.082 28.6375 25.9424 27.7771 27.0038 27.7771Z" fill="#434243"/>
</svg>
